<svg width="38" height="38" viewBox="0 0 38 38" fill="none" xmlns="http://www.w3.org/2000/svg">
<path d="M4.41667 37.75C3.27083 37.75 2.28993 37.342 1.47396 36.526C0.657986 35.7101 0.25 34.7292 0.25 33.5833V4.41667C0.25 3.27083 0.657986 2.28993 1.47396 1.47396C2.28993 0.657986 3.27083 0.25 4.41667 0.25H21.0833V4.41667H4.41667V33.5833H33.5833V16.9167H37.75V33.5833C37.75 34.7292 37.342 35.7101 36.526 36.526C35.7101 37.342 34.7292 37.75 33.5833 37.75H4.41667ZM6.5 29.4167H31.5L23.6875 19L17.4375 27.3333L12.75 21.0833L6.5 29.4167ZM29.4167 12.75V8.58333H25.25V4.41667H29.4167V0.25H33.5833V4.41667H37.75V8.58333H33.5833V12.75H29.4167Z" fill="white" fill-opacity="0.5"/>
</svg>
