<svg width="340" height="328" viewBox="0 0 340 328" fill="none" xmlns="http://www.w3.org/2000/svg">
<mask id="mask0_405_65" style="mask-type:luminance" maskUnits="userSpaceOnUse" x="52" y="50" width="235" height="230">
<path d="M93.5102 50.6085L286.665 66.8167L245.333 279.072L52.178 262.864L93.5102 50.6085Z" fill="white"/>
</mask>
<g mask="url(#mask0_405_65)">
<mask id="mask1_405_65" style="mask-type:luminance" maskUnits="userSpaceOnUse" x="52" y="50" width="235" height="230">
<path d="M93.5102 50.6085L286.665 66.8167L245.333 279.072L52.178 262.864L93.5102 50.6085Z" fill="white"/>
</mask>
<g mask="url(#mask1_405_65)">
<path d="M163.431 192.703C183.691 194.831 201.863 188.211 218.644 179.117C235.424 170.018 251.638 159.536 257.528 142.882C272.83 108.584 253.22 70.2813 211.498 67.529C195.528 66.2416 179.242 65.3614 163.608 64.5312C150.683 64.3562 137.304 62.1601 124.203 62.8851C124.015 62.9234 111.605 69.0601 111.417 69.0985C108.638 70.9755 105.857 72.8854 103.065 74.8309C100.271 76.7906 97.6323 77.6431 97.3889 81.3753C85.7567 138.328 73.9827 194.149 62.4952 251.274C61.6314 254.475 64.2836 256.034 67.9431 256.129C83.5634 257.009 99.4767 260.436 115.05 260.024C118.843 258.199 129.034 253.534 132.013 250.945C135.993 247.527 142.532 246.147 142.215 240.336C143.401 223.715 144.585 207.413 145.797 190.688C151.624 191.389 157.566 192.156 163.431 192.703ZM160.763 137.655C150.792 137.785 150.728 137.187 152.93 127.729C154.383 123.67 153.175 119.976 155.668 116.757C170.59 117.85 182.315 122.957 178.833 138.045C172.721 138.177 166.678 137.939 160.763 137.655Z" fill="url(#paint0_linear_405_65)"/>
</g>
</g>
<mask id="mask2_405_65" style="mask-type:luminance" maskUnits="userSpaceOnUse" x="144" y="162" width="50" height="35">
<path d="M144.443 174.053L187.877 162L193.981 183.997L150.547 196.049L144.443 174.053Z" fill="white"/>
</mask>
<g mask="url(#mask2_405_65)">
<mask id="mask3_405_65" style="mask-type:luminance" maskUnits="userSpaceOnUse" x="53" y="47" width="235" height="230">
<path d="M94.6001 47.8886L287.755 64.0968L246.423 276.352L53.2678 260.144L94.6001 47.8886Z" fill="white"/>
</mask>
<g mask="url(#mask3_405_65)">
<mask id="mask4_405_65" style="mask-type:luminance" maskUnits="userSpaceOnUse" x="53" y="47" width="235" height="230">
<path d="M94.6001 47.8886L287.755 64.0968L246.423 276.352L53.2678 260.144L94.6001 47.8886Z" fill="white"/>
</mask>
<g mask="url(#mask4_405_65)">
<path d="M173.87 189.323L191.825 177.002L185.299 176.453C177.864 175.615 170.442 174.722 163.209 173.796L163.028 173.782L153.956 172.699L151.166 172.465L150.201 172.492C149.948 172.53 149.723 172.629 149.537 172.792C149.351 172.954 149.233 173.149 149.182 173.371C149.1 173.792 149.015 174.533 148.964 175.121C148.732 178.799 148.482 182.528 148.183 186.253C148.16 186.518 148.239 186.746 148.418 186.946C148.596 187.142 148.834 187.261 149.123 187.297L149.245 187.309C154.313 187.892 159.553 188.548 164.762 189.037L166.363 189.171C168.849 189.356 171.351 189.406 173.87 189.323Z" fill="url(#paint1_linear_405_65)"/>
</g>
</g>
</g>
<mask id="mask5_405_65" style="mask-type:luminance" maskUnits="userSpaceOnUse" x="52" y="50" width="235" height="230">
<path d="M93.5092 50.6085L286.664 66.8167L245.332 279.072L52.177 262.864L93.5092 50.6085Z" fill="white"/>
</mask>
<g mask="url(#mask5_405_65)">
<mask id="mask6_405_65" style="mask-type:luminance" maskUnits="userSpaceOnUse" x="52" y="50" width="235" height="230">
<path d="M93.5092 50.6085L286.664 66.8167L245.332 279.072L52.177 262.864L93.5092 50.6085Z" fill="white"/>
</mask>
<g mask="url(#mask6_405_65)">
<path d="M136.723 246.25L136.007 246.19L99.3282 242.63L92.3473 241.935L91.7535 241.887C89.6182 241.706 88.2147 241.161 87.4443 240.186C86.7805 239.227 86.6239 238.179 86.9683 237.037C93.7179 203.627 100.716 169.541 107.56 136.566C112.235 113.809 117.109 90.3158 121.794 67.1854C122.678 62.9703 123.568 62.4038 128.404 62.6491L139.558 63.26C147.597 63.7777 155.719 64.1891 163.599 64.5797C178.699 65.3681 194.331 66.194 209.811 67.4971L211.472 67.6331C230.159 69.203 245.336 77.3363 254.234 90.4603C264.059 105.007 265.297 124.67 257.508 142.989C252.831 155.244 243.187 165.152 229.648 171.519C217.369 177.295 202.533 179.802 187.884 178.569L184.439 178.281C177.011 177.445 169.528 176.547 162.295 175.62L153.042 174.523L150.252 174.289C149.339 174.154 148.48 174.332 147.676 174.823C146.894 175.452 146.767 176.408 146.634 178.004C145.678 191.91 144.673 206.028 143.706 219.664L142.163 240.599C142.245 242.64 141.603 244.41 140.376 245.431C139.85 245.803 139.265 246.058 138.623 246.204C137.985 246.344 137.351 246.363 136.723 246.25ZM153.848 122.713C153.724 124.399 153.42 126.071 152.929 127.729C152.165 131.041 151.172 135.189 152.43 136.798C152.794 137.159 153.258 137.359 153.82 137.393L154.119 137.421L160.762 137.655C168.655 137.996 176.791 138.306 184.968 137.809C196.289 137.259 202.527 129.369 203.688 121.856C204.85 114.344 201.023 105.823 189.858 104.031C182.735 102.842 175.509 101.863 168.524 100.9L165.718 100.453L162.485 100.017C160.763 99.875 159.646 100.051 159.011 100.532C158.371 101.015 158.11 101.74 158.073 102.866L158.041 103.023C157.423 106.507 156.792 110.046 156.254 113.43C156.04 114.539 155.886 115.651 155.667 116.757C155.607 117.163 155.367 117.461 154.95 117.66C154.462 117.994 154.217 120.172 154.114 121.02C154.079 121.589 153.992 122.15 153.848 122.713Z" fill="url(#paint2_linear_405_65)"/>
</g>
</g>
<mask id="mask7_405_65" style="mask-type:luminance" maskUnits="userSpaceOnUse" x="53" y="48" width="235" height="230">
<path d="M94.5092 48.6087L287.664 64.8169L246.332 277.072L53.177 260.864L94.5092 48.6087Z" fill="white"/>
</mask>
<g mask="url(#mask7_405_65)">
<mask id="mask8_405_65" style="mask-type:luminance" maskUnits="userSpaceOnUse" x="53" y="48" width="235" height="230">
<path d="M94.5092 48.6087L287.664 64.8169L246.332 277.072L53.177 260.864L94.5092 48.6087Z" fill="white"/>
</mask>
<g mask="url(#mask8_405_65)">
<path d="M101.389 259.636C96.5804 259.235 91.7478 258.67 87.0954 258.114L87.0357 258.113C82.3783 257.559 77.5457 256.993 72.8578 256.601L67.7575 256.175C65.2086 255.957 63.2549 255.152 62.0802 253.766C61.5374 253.089 61.1871 252.33 61.0255 251.495C60.8589 250.663 60.8988 249.819 61.1426 248.974C67.9732 215.138 75 181.215 81.7525 148.396C86.4453 125.855 91.2203 102.566 95.9966 79.2804C96.2904 75.2843 99.0455 73.5343 101.252 72.1122L102.69 71.2134C105.636 69.105 108.409 67.2436 111.05 65.4325L111.391 65.2455L111.586 65.1544L111.647 65.1606L116.371 62.8778L123.829 59.2676L124.352 59.0436L124.554 58.9554L124.869 58.8724C126.499 58.4896 128.128 58.3754 129.757 58.534L133.1 58.7076C138.628 58.7976 144.275 59.2158 149.207 59.5777L151.342 59.7579L164.888 60.464L186.369 61.6241L201.425 62.6192L212.657 63.4536L214.259 63.5877C218.736 63.9785 223.075 64.7966 227.274 66.042C231.478 67.2861 235.438 68.9309 239.159 70.9707C242.88 73.0106 246.277 75.3947 249.343 78.1345C252.413 80.8687 255.084 83.8893 257.35 87.1935C261.903 94.0364 264.652 101.501 265.59 109.587C266.302 114.905 266.25 120.273 265.434 125.682C264.614 131.092 263.051 136.384 260.75 141.552C259.393 145.32 257.493 148.892 255.046 152.274C251.761 156.938 247.721 161.048 242.94 164.6C236.301 169.885 228.386 174.635 220.856 178.932C207.986 185.89 188.269 194.901 165.548 192.993L164.008 192.866C158.974 192.388 153.913 191.753 149.019 191.181C148.383 200.024 147.758 208.813 147.105 217.439L147.061 217.65C146.603 223.398 146.206 229.154 145.81 234.909L145.592 238.213C145.6 238.53 145.576 238.851 145.525 239.171C145.389 241.411 144.453 243.424 142.94 244.691L142.378 245.124C141.07 246.223 139.657 247.193 138.129 248.038C136.879 248.742 135.697 249.537 134.592 250.417C131.833 252.812 124.777 256.241 118.336 259.292L116.606 260.109L116.291 260.192L115.877 260.154C111.013 260.25 106.182 260.078 101.389 259.636ZM73.6933 252.33C78.4968 252.732 83.3294 253.297 87.9737 253.901C92.5703 254.448 97.3432 255.012 102.091 255.406C106.508 255.809 110.958 255.967 115.439 255.885L116.237 255.525C120.345 253.617 128.911 249.565 131.25 247.458L133.36 245.919L99.8055 242.677L92.8855 241.988L92.3525 241.946C90.8677 241.863 89.4867 241.515 88.2145 240.901L69.0532 251.993L73.6815 252.384L73.6933 252.33ZM113.637 68.8653C111.015 70.5737 108.369 72.3861 105.497 74.4509L103.906 75.4984C101.852 76.7718 100.944 77.3938 100.803 79.3626L100.784 79.4696L100.764 79.5722C96.0264 102.648 91.2433 125.986 86.5517 148.531L86.4764 148.899C79.7674 181.507 72.7792 215.22 65.991 248.84L85.5486 237.569C85.3484 236.635 85.3708 235.689 85.616 234.733C92.3538 201.376 99.3446 167.343 106.17 134.476L106.195 134.316C110.801 111.925 115.613 88.7499 120.31 65.5653L118.373 66.5283L113.637 68.8653ZM100.804 238.472L137.49 242.034L138.144 242.089C138.631 242.176 139.09 242.09 139.518 241.828C140.342 241.062 140.777 240.169 140.823 239.152C140.805 238.935 140.849 238.724 140.827 238.508L140.858 238.351L141.055 236.117C141.473 229.935 141.952 223.759 142.376 217.576L142.458 217.155C143.147 207.728 143.836 198.301 144.496 188.711L144.679 186.851C144.923 183.119 145.159 179.44 145.463 175.714C145.542 174.059 145.645 172.3 147.274 171.043L147.493 170.847C148.838 169.998 150.284 169.671 151.845 169.871L154.75 170.115L163.529 171.173L164.003 171.212C171.249 172.089 178.719 173.037 186.101 173.821L189.484 174.103C203.659 175.292 218.003 172.853 229.813 167.303C233.448 165.605 236.854 163.587 240.038 161.25C244.377 157.848 248.135 154.02 251.313 149.765C253.433 146.697 255.127 143.483 256.389 140.111C258.484 135.264 259.918 130.303 260.69 125.24C261.461 120.177 261.55 115.151 260.956 110.165C259.97 102.619 257.324 95.6633 253.021 89.2969C249.625 84.2427 245.278 79.9474 239.976 76.4122C235.977 73.8528 231.633 71.8146 226.943 70.2934C222.254 68.7722 217.374 67.8222 212.303 67.4434L200.797 66.4766L185.548 65.5212L164.495 64.6634L164.318 64.6476C159.689 64.5812 154.813 64.2269 150.591 63.927L140.218 63.3259L132.525 62.8926C130.062 62.8452 127.944 62.8823 125.88 62.9785C125.533 63.764 125.299 64.5648 125.166 65.3837C120.482 88.5183 115.626 111.904 110.983 134.505L110.901 134.926C104.069 167.846 97.0907 201.829 90.3461 235.239L90.3212 235.343C90.1322 235.862 90.1811 236.349 90.463 236.803C90.8423 237.317 91.7502 237.607 93.175 237.725L93.7688 237.773L100.804 238.472ZM149.38 186.866C154.511 187.459 159.744 188.112 164.898 188.598L166.5 188.732C182.159 190.045 197.595 186.308 216.193 176.557C206.968 178.696 197.737 179.365 188.49 178.576L184.935 178.276C177.561 177.444 170.078 176.546 162.845 175.619L162.723 175.607L153.592 174.522L150.268 174.242C150.174 174.754 150.118 175.269 150.093 175.78C149.845 179.514 149.6 183.242 149.296 186.968L149.38 186.866Z" fill="black"/>
</g>
</g>
<mask id="mask9_405_65" style="mask-type:luminance" maskUnits="userSpaceOnUse" x="137" y="85" width="75" height="64">
<path d="M137.444 102L198.386 85.0888L211.428 132.088L150.487 148.999L137.444 102Z" fill="white"/>
</mask>
<g mask="url(#mask9_405_65)">
<mask id="mask10_405_65" style="mask-type:luminance" maskUnits="userSpaceOnUse" x="45" y="50" width="246" height="227">
<path d="M90.5245 50.0541L290.059 64.0592L244.958 276.116L45.4228 262.111L90.5245 50.0541Z" fill="white"/>
</mask>
<g mask="url(#mask10_405_65)">
<mask id="mask11_405_65" style="mask-type:luminance" maskUnits="userSpaceOnUse" x="45" y="50" width="246" height="227">
<path d="M90.5235 50.0541L290.058 64.0593L244.957 276.116L45.4218 262.111L90.5235 50.0541Z" fill="white"/>
</mask>
<g mask="url(#mask11_405_65)">
<path d="M153.551 138.152L151.466 138.009C150.156 137.949 149.136 137.487 148.404 136.615C148.003 136.096 147.734 135.527 147.588 134.9C147.107 133.369 148.346 129.784 149 127C148.83 127.792 149.17 126.208 149 127C148.821 127.841 149.247 125.842 149 127C149 127 150.717 119.567 151 118.5C151.307 116.755 151.5 116 151.694 114.71L152.299 111.866C152.894 108.487 153.572 105.006 154.263 101.471C154.376 99.7705 155.026 98.4773 156.209 97.5974C157.907 96.326 160.209 96.3264 161.802 96.4409C162.988 96.5392 164.157 96.6932 165.313 96.9013L168.097 97.2552L168.155 97.2622C175.372 98.1427 182.827 99.0397 190.303 100.152C203.274 102.024 207.612 111.47 206.173 119.981C204.738 128.487 197.337 137.268 184.098 138.104L179.389 138.307L179.269 138.299L177.393 138.328L174.896 138.368L173.772 138.394L171.965 138.427L170.862 138.351L168.56 138.351L167.765 138.296L165.337 138.284L161.386 138.167L158.848 138.099C157.074 138.214 155.306 138.231 153.551 138.152ZM152.383 133.418L152.481 133.533C152.53 133.589 152.692 133.709 153.346 133.859L159.48 133.969L164.108 134.137L167.024 134.179L168.064 134.254L171.909 134.309L172.397 134.343L175.699 134.31C176.401 130.133 175.636 126.712 173.443 124.153C170.415 120.57 164.288 118.375 155.362 117.642C155.225 117.933 155.123 118.228 155.05 118.529C154.963 118.916 154.904 119.305 154.866 119.693C154.779 120.384 154.611 120.977 154.5 121.5C154.357 122.171 154 123.5 154 123.5C154 123.5 153.743 125.372 153.5 126.5C153.363 127.138 153.215 128 153.056 128.495C153.065 128.468 152 133 152.383 133.418ZM156.896 113.368C166.897 114.28 173.855 116.961 177.59 121.342C180.429 124.642 181.447 128.935 180.665 134.068L184.187 133.886C194.331 133.264 200.034 126.339 201.176 119.791C202.323 113.237 198.933 105.781 188.916 104.33C181.578 103.175 174.179 102.281 167.018 101.459L163.996 101.033L160.847 100.651C160.331 100.601 159.813 100.602 159.29 100.646C159.237 100.877 159.206 101.107 159.203 101.337L159.128 101.708C158.449 105.188 157.771 108.669 157.176 112.048L156.896 113.368Z" fill="black"/>
</g>
</g>
</g>
<defs>
<linearGradient id="paint0_linear_405_65" x1="128.98" y1="61.5593" x2="179.12" y2="242.245" gradientUnits="userSpaceOnUse">
<stop stop-color="#004AAD"/>
<stop offset="1" stop-color="#002F6E"/>
</linearGradient>
<linearGradient id="paint1_linear_405_65" x1="166.202" y1="168.04" x2="172.234" y2="189.777" gradientUnits="userSpaceOnUse">
<stop stop-color="#004AAD"/>
<stop offset="1" stop-color="#002F6E"/>
</linearGradient>
<linearGradient id="paint2_linear_405_65" x1="142.199" y1="57.9296" x2="190.455" y2="231.827" gradientUnits="userSpaceOnUse">
<stop stop-color="#F69B00"/>
<stop offset="1" stop-color="#BC7600"/>
</linearGradient>
</defs>
</svg>
