<svg width="100" height="94" viewBox="0 0 100 94" fill="none" xmlns="http://www.w3.org/2000/svg">
<mask id="mask0_332_18" style="mask-type:luminance" maskUnits="userSpaceOnUse" x="0" y="0" width="89" height="94">
<path d="M0 0H88.5201V93.0691H0V0Z" fill="white"/>
</mask>
<g mask="url(#mask0_332_18)">
<mask id="mask1_332_18" style="mask-type:luminance" maskUnits="userSpaceOnUse" x="0" y="0" width="89" height="93">
<path d="M10.191 0H78.3291C81.0315 0 83.6231 0.969231 85.5339 2.69509C87.4447 4.42094 88.5201 6.76169 88.5201 9.20457V83.6686C88.5201 86.1115 87.4447 88.4522 85.5339 90.1781C83.6231 91.9039 81.0315 92.8732 78.3291 92.8732H10.191C7.4886 92.8732 4.8947 91.9039 2.9839 90.1781C1.0731 88.4522 0 86.1115 0 83.6686V9.20457C0 6.76169 1.0731 4.42094 2.9839 2.69509C4.8947 0.969231 7.4886 0 10.191 0Z" fill="white"/>
</mask>
<g mask="url(#mask1_332_18)">
<path d="M0 0H88.5201V92.7564H0V0Z" fill="black"/>
</g>
</g>
<mask id="mask2_332_18" style="mask-type:luminance" maskUnits="userSpaceOnUse" x="10" y="0" width="90" height="93">
<path d="M10.7305 0H99.2505V92.7564H10.7305V0Z" fill="white"/>
</mask>
<g mask="url(#mask2_332_18)">
<mask id="mask3_332_18" style="mask-type:luminance" maskUnits="userSpaceOnUse" x="10" y="0" width="90" height="93">
<path d="M20.9214 0H89.0596C91.7619 0 94.3535 0.969231 96.2643 2.69509C98.1751 4.42094 99.2505 6.76169 99.2505 9.20457V83.6686C99.2505 86.1115 98.1751 88.4522 96.2643 90.1781C94.3535 91.9039 91.7619 92.8732 89.0596 92.8732H20.9214C18.2168 92.8732 15.6252 91.9039 13.7144 90.1781C11.8036 88.4522 10.7305 86.1115 10.7305 83.6686V9.20457C10.7305 6.76169 11.8036 4.42094 13.7144 2.69509C15.6252 0.969231 18.2168 0 20.9214 0Z" fill="white"/>
</mask>
<g mask="url(#mask3_332_18)">
<path d="M10.7305 0V92.7564H99.2505V0H10.7305Z" fill="url(#paint0_linear_332_18)"/>
</g>
</g>
<mask id="mask4_332_18" style="mask-type:luminance" maskUnits="userSpaceOnUse" x="32" y="26" width="46" height="62">
<path d="M32.7773 26.5508H77.0858V87.7812H32.7773V26.5508Z" fill="white"/>
</mask>
<g mask="url(#mask4_332_18)">
<path d="M55.3701 26.5508C41.3576 26.5508 33.4098 33.6376 33.1836 43.8948V44.4096H45.5554V43.8948C45.8254 39.3655 49.2985 36.4411 54.5486 36.4411C59.7502 36.4411 63.2211 39.157 63.2211 42.9881C63.2211 46.8213 61.4395 48.7993 55.5525 51.9738C49.2523 55.3109 46.7392 59.019 47.3323 65.6118L47.4039 67.371H59.5218V65.6952C59.5218 61.7412 61.211 59.7193 67.2827 56.5469C73.7189 53.1265 77.049 48.8014 77.049 42.6192C77.049 33.1019 68.425 26.5508 55.3701 26.5508ZM53.7247 75.0248C49.0816 75.0248 46.1854 77.4573 46.1854 81.4218C46.1854 85.3508 49.0839 87.7812 53.7247 87.7812C58.3656 87.7812 61.2272 85.3508 61.2272 81.4218C61.2272 77.4573 58.3679 75.0248 53.7247 75.0248Z" fill="black"/>
</g>
<path d="M24.7972 12.8555H50.2144C50.2144 12.8938 50.2189 12.932 50.2189 12.9703C50.2189 18.5078 44.5266 22.9975 37.5058 22.9975C30.485 22.9975 24.7949 18.5078 24.7949 12.9703C24.7949 12.932 24.7972 12.8938 24.7972 12.8555Z" fill="white"/>
<mask id="mask5_332_18" style="mask-type:luminance" maskUnits="userSpaceOnUse" x="23" y="11" width="29" height="13">
<path d="M23.5342 11.9624H51.0493V23.9663H23.5342V11.9624Z" fill="white"/>
</mask>
<g mask="url(#mask5_332_18)">
<path d="M24.3668 13.4757C27.3923 13.4757 30.4177 13.4757 33.4432 13.4757C37.0871 13.4757 40.731 13.4757 44.3749 13.4757C46.2857 13.4757 48.1965 13.4757 50.1073 13.4757C49.8304 13.2234 49.5535 12.9712 49.2788 12.719C49.4127 17.042 45.7065 20.6021 41.4002 21.8611C36.7501 23.2222 31.2831 22.2092 27.8977 18.9075C26.1992 17.2484 25.1238 15.0118 25.1953 12.719C25.2276 11.7435 23.5684 11.7456 23.5384 12.719C23.3837 17.659 27.5354 21.761 32.4393 23.2638C37.694 24.8771 44.0034 23.687 47.8134 19.9143C49.7658 17.9821 51.0189 15.3787 50.9358 12.719C50.9242 12.3105 50.5665 11.9624 50.1073 11.9624C47.0888 11.9624 44.0703 11.9624 41.0518 11.9624C37.3825 11.9624 33.7155 11.9624 30.0462 11.9624C28.1538 11.9624 26.2592 11.9624 24.3668 11.9624C23.3007 11.9624 23.2984 13.4757 24.3668 13.4757Z" fill="black"/>
</g>
<path d="M39.1937 21.6086C40.4476 21.652 41.4981 20.654 41.5388 19.3803C41.5795 18.1092 40.5977 17.0422 39.3463 17.0014C38.0924 16.958 37.0419 17.956 37.0012 19.2297C36.9605 20.5008 37.9423 21.5678 39.1937 21.6086Z" fill="black"/>
<path d="M85.6261 12.8555H59.3012C59.3012 12.8938 59.2988 12.932 59.2988 12.9703C59.2988 18.5078 65.1921 22.9975 72.4636 22.9975C79.7352 22.9975 85.6308 18.5078 85.6308 12.9703C85.6308 12.932 85.6261 12.8938 85.6261 12.8555Z" fill="white"/>
<mask id="mask6_332_18" style="mask-type:luminance" maskUnits="userSpaceOnUse" x="58" y="11" width="29" height="13">
<path d="M58.8359 11.9624H86.2518V23.9663H58.8359V11.9624Z" fill="white"/>
</mask>
<g mask="url(#mask6_332_18)">
<path d="M85.4188 11.9624C82.3934 11.9624 79.368 11.9624 76.3425 11.9624C72.6986 11.9624 69.0547 11.9624 65.4108 11.9624C63.5 11.9624 61.5892 11.9624 59.6784 11.9624C59.2214 11.9624 58.8637 12.3084 58.8499 12.719C58.6953 17.659 62.8469 21.761 67.7508 23.2638C73.0055 24.8771 79.3149 23.687 83.1249 19.9143C85.0773 17.9821 86.3304 15.3787 86.2473 12.719C86.2173 11.7456 84.5604 11.7415 84.5904 12.719C84.7242 17.042 81.018 20.6021 76.7118 21.8611C72.0617 23.2222 66.5946 22.2092 63.2092 18.9075C61.5107 17.2484 60.4353 15.0118 60.5068 12.719C60.2322 12.9712 59.9553 13.2234 59.6784 13.4757C62.6969 13.4757 65.7154 13.4757 68.7339 13.4757C72.4032 13.4757 76.0725 13.4757 79.7418 13.4757C81.6341 13.4757 83.5265 13.4757 85.4188 13.4757C86.485 13.4757 86.4873 11.9624 85.4188 11.9624Z" fill="black"/>
</g>
<path d="M70.3463 18.6086C69.0924 18.652 68.0419 17.654 68.0012 16.3803C67.9605 15.1092 68.9423 14.0422 70.1962 14.0014C71.4476 13.958 72.4981 14.956 72.5388 16.2297C72.5795 17.5008 71.5977 18.5678 70.3463 18.6086Z" fill="black"/>
<defs>
<linearGradient id="paint0_linear_332_18" x1="10.7295" y1="46.4364" x2="99.2496" y2="46.4364" gradientUnits="userSpaceOnUse">
<stop stop-color="#BD650A"/>
<stop offset="0.015625" stop-color="#BD650A"/>
<stop offset="0.03125" stop-color="#BE660A"/>
<stop offset="0.046875" stop-color="#BF670A"/>
<stop offset="0.0625" stop-color="#BF680A"/>
<stop offset="0.078125" stop-color="#C0690A"/>
<stop offset="0.09375" stop-color="#C06A0A"/>
<stop offset="0.109375" stop-color="#C16A0A"/>
<stop offset="0.125" stop-color="#C26B0A"/>
<stop offset="0.140625" stop-color="#C26C0A"/>
<stop offset="0.15625" stop-color="#C36D0A"/>
<stop offset="0.171875" stop-color="#C46E0A"/>
<stop offset="0.1875" stop-color="#C46F0A"/>
<stop offset="0.203125" stop-color="#C56F0A"/>
<stop offset="0.21875" stop-color="#C6700A"/>
<stop offset="0.234375" stop-color="#C67109"/>
<stop offset="0.25" stop-color="#C77209"/>
<stop offset="0.265625" stop-color="#C87309"/>
<stop offset="0.28125" stop-color="#C87309"/>
<stop offset="0.296875" stop-color="#C97409"/>
<stop offset="0.3125" stop-color="#C97509"/>
<stop offset="0.328125" stop-color="#CA7609"/>
<stop offset="0.34375" stop-color="#CB7709"/>
<stop offset="0.359375" stop-color="#CB7809"/>
<stop offset="0.375" stop-color="#CC7809"/>
<stop offset="0.390625" stop-color="#CD7909"/>
<stop offset="0.40625" stop-color="#CD7A09"/>
<stop offset="0.421875" stop-color="#CE7B09"/>
<stop offset="0.4375" stop-color="#CF7C09"/>
<stop offset="0.453125" stop-color="#CF7D09"/>
<stop offset="0.46875" stop-color="#D07D09"/>
<stop offset="0.484375" stop-color="#D17E09"/>
<stop offset="0.5" stop-color="#D17F09"/>
<stop offset="0.515625" stop-color="#D28009"/>
<stop offset="0.53125" stop-color="#D28109"/>
<stop offset="0.546875" stop-color="#D38209"/>
<stop offset="0.5625" stop-color="#D48209"/>
<stop offset="0.578125" stop-color="#D48309"/>
<stop offset="0.59375" stop-color="#D58409"/>
<stop offset="0.609375" stop-color="#D68509"/>
<stop offset="0.625" stop-color="#D68609"/>
<stop offset="0.640625" stop-color="#D78709"/>
<stop offset="0.65625" stop-color="#D88709"/>
<stop offset="0.671875" stop-color="#D88809"/>
<stop offset="0.6875" stop-color="#D98909"/>
<stop offset="0.703125" stop-color="#D98A09"/>
<stop offset="0.71875" stop-color="#DA8B08"/>
<stop offset="0.734375" stop-color="#DB8C08"/>
<stop offset="0.75" stop-color="#DB8C08"/>
<stop offset="0.765625" stop-color="#DC8D08"/>
<stop offset="0.78125" stop-color="#DD8E08"/>
<stop offset="0.796875" stop-color="#DD8F08"/>
<stop offset="0.8125" stop-color="#DE9008"/>
<stop offset="0.828125" stop-color="#DF9008"/>
<stop offset="0.84375" stop-color="#DF9108"/>
<stop offset="0.859375" stop-color="#E09208"/>
<stop offset="0.875" stop-color="#E19308"/>
<stop offset="0.890625" stop-color="#E19408"/>
<stop offset="0.90625" stop-color="#E29508"/>
<stop offset="0.921875" stop-color="#E29508"/>
<stop offset="0.9375" stop-color="#E39608"/>
<stop offset="0.953125" stop-color="#E49708"/>
<stop offset="0.96875" stop-color="#E49808"/>
<stop offset="0.984375" stop-color="#E59908"/>
<stop offset="1" stop-color="#E69A08"/>
</linearGradient>
</defs>
</svg>